<svg width="80" height="80" viewBox="0 0 80 80" fill="none" xmlns="http://www.w3.org/2000/svg">
<rect width="80" height="80" rx="10" fill="#CFCFCF"/>
<path d="M65.7793 49.4186L53.6285 27.9749C53.3269 27.4427 52.7624 27.1138 52.1507 27.1138H27.8493C27.2375 27.1138 26.6732 27.4427 26.3716 27.9749L14.2208 49.4186C13.9203 49.9489 13.927 50.5995 14.2383 51.1234L26.3891 71.5752C26.6952 72.0904 27.2501 72.4062 27.8494 72.4062H52.1509C52.7501 72.4062 53.305 72.0904 53.6112 71.5752L65.762 51.1234C66.0731 50.5994 66.0797 49.9488 65.7793 49.4186ZM40 62.1449C33.4442 62.1449 28.1108 56.8114 28.1108 50.2556C28.1108 43.6998 33.4442 38.3664 40 38.3664C46.5557 38.3664 51.8893 43.6999 51.8893 50.2556C51.8893 56.8113 46.5559 62.1449 40 62.1449Z" fill="#222222"/>
<path d="M69.7142 40.9371C68.4571 40.9371 67.4285 39.9085 67.4285 38.6513V34.6513C67.4285 22.3085 59.1999 11.3371 47.9999 7.79422V6.5371C47.9999 5.39422 46.9712 4.36572 45.8285 4.36572H34.1714C33.0285 4.36572 32 5.39435 32 6.5371V7.79422C20.8 11.2228 12.5714 21.7371 12.5714 34.08V38.6513C12.5714 39.9085 11.5427 40.9371 10.2856 40.9371H8V47.7942H72V40.9371H69.7142Z" fill="#F4BA48"/>
<path d="M59.4286 42.0799H20.5714C19.8856 42.0799 19.4285 41.6228 19.4285 40.9371C19.4285 40.2513 19.8856 39.7942 20.5714 39.7942H59.4285C60.1143 39.7942 60.5714 40.2513 60.5714 40.9371C60.5714 41.6228 60.1143 42.0799 59.4286 42.0799Z" fill="#B58024"/>
<path d="M48 14.6514C47.3143 14.6514 46.8571 14.1943 46.8571 13.5085V8.93713C46.8571 8.25138 47.3143 7.79425 48 7.79425C48.6858 7.79425 49.1429 8.25138 49.1429 8.93713V13.5085C49.1429 14.1943 48.6858 14.6514 48 14.6514Z" fill="#B58024"/>
<path d="M32 14.6514C31.3143 14.6514 30.8571 14.1943 30.8571 13.5085V8.93713C30.8571 8.25138 31.3143 7.79425 32 7.79425C32.6858 7.79425 33.1429 8.25138 33.1429 8.93713V13.5085C33.1429 14.1943 32.6858 14.6514 32 14.6514Z" fill="#B58024"/>
<path d="M40 20.3657C39.3143 20.3657 38.8571 19.9086 38.8571 19.2228V5.5086C38.8571 4.82285 39.3143 4.36572 40 4.36572C40.6858 4.36572 41.1429 4.82285 41.1429 5.5086V19.2228C41.1429 19.7942 40.6858 20.3657 40 20.3657Z" fill="#B58024"/>
<path d="M54.5143 10.9942L50.2856 23.7942L62.9714 19.5656C60.8 16.1371 57.9429 13.1657 54.5143 10.9942Z" fill="#B58024"/>
<path d="M25.4858 10.9942L29.7144 23.7942L17.0286 19.5657C19.2 16.1371 22.0571 13.1657 25.4858 10.9942Z" fill="#B58024"/>
</svg>
